<svg width="70" height="70" viewBox="0 0 70 70" fill="none" xmlns="http://www.w3.org/2000/svg">
    <circle cx="35" cy="35" r="35" fill="#936DFC"/>
    <path d="M49.781 40.513a1 1 0 0 0-1.873-.7l1.873.7zM24.16 43.53a1 1 0 0 0-1.57 1.24l1.57-1.24zm-3.938-14.118a1 1 0 1 0 1.87.709l-1.87-.71zM34.7 20.225l-.01-1h-.01l.02 1zm.287-.003v-1h-.01l.01 1zm10.827 6.25a1 1 0 1 0 1.57-1.24l-1.57 1.24zm2.094 13.342c-1.955 5.236-7.004 8.964-12.921 8.964v2c6.779 0 12.558-4.271 14.794-10.265l-1.873-.7zm-12.921 8.964c-4.39 0-8.302-2.05-10.828-5.249l-1.57 1.24a15.762 15.762 0 0 0 12.398 6.009v-2zM22.09 30.12c1.942-5.123 6.851-8.786 12.628-8.895l-.038-2c-6.619.126-12.238 4.322-14.46 10.186l1.87.709zm12.618-8.895.287-.003-.019-2-.287.003.02 2zm.278-.003c4.39 0 8.301 2.05 10.827 5.25l1.57-1.24a15.762 15.762 0 0 0-12.397-6.01v2z" fill="#fff"/>
    <circle cx="24.811" cy="31.111" r="3.889" stroke="#fff" stroke-width="2" stroke-linecap="round"/>
    <circle cx="45.189" cy="38.889" r="3.889" stroke="#fff" stroke-width="2" stroke-linecap="round"/>
</svg>
